<mxfile host="app.diagrams.net" agent="Mozilla/5.0 (Windows NT 10.0; Win64; x64) AppleWebKit/537.36 (KHTML, like Gecko) Chrome/129.0.0.0 Safari/537.36" version="24.7.17">
  <diagram name="Page-1" id="JNz-msePjNKI9kNJT1Lk">
    <mxGraphModel dx="2537" dy="908" grid="1" gridSize="10" guides="1" tooltips="1" connect="1" arrows="1" fold="1" page="1" pageScale="1" pageWidth="850" pageHeight="1100" math="0" shadow="0">
      <root>
        <mxCell id="0" />
        <mxCell id="1" parent="0" />
        <mxCell id="PENTmHyqyMJKmokRHzXA-4" value="" style="shape=image;verticalLabelPosition=bottom;labelBackgroundColor=default;verticalAlign=top;aspect=fixed;imageAspect=0;image=https://miro.medium.com/v2/resize:fit:700/1*eUpYUJz3bTBAcyMCI6ThOw.png;clipPath=inset(0% 21.67% 0% 0%);" vertex="1" parent="1">
          <mxGeometry x="-760" y="29" width="700" height="521.2765957446809" as="geometry" />
        </mxCell>
        <mxCell id="PENTmHyqyMJKmokRHzXA-6" value="" style="endArrow=none;html=1;rounded=0;strokeWidth=7;strokeColor=#ffffff;" edge="1" parent="1">
          <mxGeometry width="50" height="50" relative="1" as="geometry">
            <mxPoint x="-149" y="255" as="sourcePoint" />
            <mxPoint x="-59" y="255" as="targetPoint" />
          </mxGeometry>
        </mxCell>
        <mxCell id="PENTmHyqyMJKmokRHzXA-7" value="" style="endArrow=none;html=1;rounded=0;strokeWidth=11;strokeColor=#f2f4f4;" edge="1" parent="1">
          <mxGeometry width="50" height="50" relative="1" as="geometry">
            <mxPoint x="-117" y="253" as="sourcePoint" />
            <mxPoint x="-77" y="253" as="targetPoint" />
          </mxGeometry>
        </mxCell>
        <mxCell id="PENTmHyqyMJKmokRHzXA-8" value="" style="endArrow=none;html=1;rounded=0;strokeColor=#e2e4e4;" edge="1" parent="1">
          <mxGeometry width="50" height="50" relative="1" as="geometry">
            <mxPoint x="-117" y="219.64" as="sourcePoint" />
            <mxPoint x="-117" y="359.64" as="targetPoint" />
          </mxGeometry>
        </mxCell>
        <mxCell id="PENTmHyqyMJKmokRHzXA-9" value="" style="endArrow=none;html=1;rounded=0;strokeColor=#5782e6;" edge="1" parent="1">
          <mxGeometry width="50" height="50" relative="1" as="geometry">
            <mxPoint x="-77" y="219.64" as="sourcePoint" />
            <mxPoint x="-77" y="359.64" as="targetPoint" />
          </mxGeometry>
        </mxCell>
      </root>
    </mxGraphModel>
  </diagram>
</mxfile>
